<svg id="visual" viewBox="0 0 1800 990" width="1800" height="990" xmlns="http://www.w3.org/2000/svg" xmlns:xlink="http://www.w3.org/1999/xlink" version="1.1"><rect x="0" y="0" width="1800" height="990" fill="#001122"></rect><path d="M849 990L888 962.5C927 935 1005 880 1128.3 825C1251.7 770 1420.3 715 1472.7 660C1525 605 1461 550 1461.7 495C1462.3 440 1527.7 385 1568 330C1608.3 275 1623.7 220 1633.3 165C1643 110 1647 55 1649 27.5L1651 0L1800 0L1800 27.5C1800 55 1800 110 1800 165C1800 220 1800 275 1800 330C1800 385 1800 440 1800 495C1800 550 1800 605 1800 660C1800 715 1800 770 1800 825C1800 880 1800 935 1800 962.5L1800 990Z" fill="#001122" stroke-linecap="round" stroke-linejoin="miter"></path></svg>